<svg width="14" height="14" viewBox="0 0 14 14" fill="none" xmlns="http://www.w3.org/2000/svg">
<g clip-path="url(#clip0_1698_20956)">
<path d="M9.33398 4.66797C10.2622 4.66797 11.1525 5.03672 11.8089 5.6931C12.4652 6.34947 12.834 7.23971 12.834 8.16797V12.2513H10.5007V8.16797C10.5007 7.85855 10.3777 7.5618 10.1589 7.34301C9.94015 7.12422 9.6434 7.0013 9.33398 7.0013C9.02457 7.0013 8.72782 7.12422 8.50903 7.34301C8.29023 7.5618 8.16732 7.85855 8.16732 8.16797V12.2513H5.83398V8.16797C5.83398 7.23971 6.20273 6.34947 6.85911 5.6931C7.51549 5.03672 8.40573 4.66797 9.33398 4.66797Z" stroke="#6F6F6F" stroke-width="1.16667" stroke-linecap="round" stroke-linejoin="round"/>
<path d="M3.49935 5.25H1.16602V12.25H3.49935V5.25Z" stroke="#6F6F6F" stroke-width="1.16667" stroke-linecap="round" stroke-linejoin="round"/>
<path d="M2.33268 3.5013C2.97701 3.5013 3.49935 2.97897 3.49935 2.33464C3.49935 1.6903 2.97701 1.16797 2.33268 1.16797C1.68835 1.16797 1.16602 1.6903 1.16602 2.33464C1.16602 2.97897 1.68835 3.5013 2.33268 3.5013Z" stroke="#6F6F6F" stroke-width="1.16667" stroke-linecap="round" stroke-linejoin="round"/>
</g>
<defs>
<clipPath id="clip0_1698_20956">
<rect width="14" height="14" fill="white"/>
</clipPath>
</defs>
</svg>
