<svg xmlns="http://www.w3.org/2000/svg" viewBox="0 0 320 452" width="320" height="452" role="img" aria-label="프로젝트 중심 이력서 미리보기"><rect width="320" height="452" fill="#FFFFFF"/><rect x="0.5" y="0.5" width="319" height="451" fill="none" stroke="#DDE0DD"/><rect x="26" y="30" width="96" height="14" fill="#1A1A1A" rx="3"/><rect x="26" y="52" width="64" height="6" fill="#00A63D" rx="3"/><rect x="26" y="68" width="64" height="8" fill="#1A1A1A" rx="2"/><rect x="26" y="82" width="268" height="1" fill="#DDE0DD"/><rect x="26" y="90" width="268" height="4" fill="#ACAEAD" rx="2"/><rect x="26" y="98" width="161" height="4" fill="#ACAEAD" rx="2"/><rect x="26" y="116" width="64" height="8" fill="#1A1A1A" rx="2"/><rect x="26" y="130" width="268" height="1" fill="#DDE0DD"/><rect x="26" y="138" width="78.8" height="13" fill="none" stroke="#DDE0DD"/><rect x="31" y="142.5" width="43" height="4" fill="#ACAEAD" rx="2"/><rect x="104.82352941176471" y="138" width="189.2" height="13" fill="none" stroke="#DDE0DD"/><rect x="110" y="142.5" width="104" height="4" fill="#ACAEAD" rx="2"/><rect x="26" y="151" width="78.8" height="13" fill="none" stroke="#DDE0DD"/><rect x="31" y="155.5" width="43" height="4" fill="#ACAEAD" rx="2"/><rect x="104.82352941176471" y="151" width="189.2" height="13" fill="none" stroke="#DDE0DD"/><rect x="110" y="155.5" width="104" height="4" fill="#ACAEAD" rx="2"/><rect x="26" y="164" width="78.8" height="13" fill="none" stroke="#DDE0DD"/><rect x="31" y="168.5" width="43" height="4" fill="#ACAEAD" rx="2"/><rect x="104.82352941176471" y="164" width="189.2" height="13" fill="none" stroke="#DDE0DD"/><rect x="110" y="168.5" width="104" height="4" fill="#ACAEAD" rx="2"/><rect x="26" y="189" width="64" height="8" fill="#1A1A1A" rx="2"/><rect x="26" y="203" width="268" height="1" fill="#DDE0DD"/><rect x="26" y="211" width="268" height="4" fill="#ACAEAD" rx="2"/><rect x="26" y="219" width="161" height="4" fill="#ACAEAD" rx="2"/><rect x="26" y="239" width="52" height="8" fill="#1A1A1A" rx="2"/><rect x="26" y="253" width="268" height="1" fill="#DDE0DD"/><rect x="26" y="261" width="158" height="7" fill="#1A1A1A" rx="3"/><rect x="26" y="274" width="74.4" height="13" fill="none" stroke="#DDE0DD"/><rect x="31" y="278.5" width="41" height="4" fill="#ACAEAD" rx="2"/><rect x="100.44444444444444" y="274" width="193.6" height="13" fill="none" stroke="#DDE0DD"/><rect x="105" y="278.5" width="106" height="4" fill="#ACAEAD" rx="2"/><rect x="26" y="287" width="74.4" height="13" fill="none" stroke="#DDE0DD"/><rect x="31" y="291.5" width="41" height="4" fill="#ACAEAD" rx="2"/><rect x="100.44444444444444" y="287" width="193.6" height="13" fill="none" stroke="#DDE0DD"/><rect x="105" y="291.5" width="106" height="4" fill="#ACAEAD" rx="2"/><rect x="26" y="300" width="74.4" height="13" fill="none" stroke="#DDE0DD"/><rect x="31" y="304.5" width="41" height="4" fill="#ACAEAD" rx="2"/><rect x="100.44444444444444" y="300" width="193.6" height="13" fill="none" stroke="#DDE0DD"/><rect x="105" y="304.5" width="106" height="4" fill="#ACAEAD" rx="2"/><rect x="26" y="313" width="74.4" height="13" fill="none" stroke="#DDE0DD"/><rect x="31" y="317.5" width="41" height="4" fill="#ACAEAD" rx="2"/><rect x="100.44444444444444" y="313" width="193.6" height="13" fill="none" stroke="#DDE0DD"/><rect x="105" y="317.5" width="106" height="4" fill="#ACAEAD" rx="2"/><circle cx="29" cy="336" r="2" fill="#00A63D"/><rect x="37" y="334" width="257" height="4" fill="#ACAEAD" rx="2"/><circle cx="29" cy="345" r="2" fill="#00A63D"/><rect x="37" y="343" width="257" height="4" fill="#ACAEAD" rx="2"/><circle cx="29" cy="354" r="2" fill="#00A63D"/><rect x="37" y="352" width="167" height="4" fill="#ACAEAD" rx="2"/><rect x="26" y="373" width="120" height="7" fill="#1A1A1A" rx="3"/><rect x="26" y="386" width="74.4" height="13" fill="none" stroke="#DDE0DD"/><rect x="31" y="390.5" width="41" height="4" fill="#ACAEAD" rx="2"/><rect x="100.44444444444444" y="386" width="193.6" height="13" fill="none" stroke="#DDE0DD"/><rect x="105" y="390.5" width="106" height="4" fill="#ACAEAD" rx="2"/><rect x="26" y="399" width="74.4" height="13" fill="none" stroke="#DDE0DD"/><rect x="31" y="403.5" width="41" height="4" fill="#ACAEAD" rx="2"/><rect x="100.44444444444444" y="399" width="193.6" height="13" fill="none" stroke="#DDE0DD"/><rect x="105" y="403.5" width="106" height="4" fill="#ACAEAD" rx="2"/><rect x="26" y="412" width="74.4" height="13" fill="none" stroke="#DDE0DD"/><rect x="31" y="416.5" width="41" height="4" fill="#ACAEAD" rx="2"/><rect x="100.44444444444444" y="412" width="193.6" height="13" fill="none" stroke="#DDE0DD"/><rect x="105" y="416.5" width="106" height="4" fill="#ACAEAD" rx="2"/></svg>
